<svg width="150" height="150" viewBox="0 0 150 150" fill="none" xmlns="http://www.w3.org/2000/svg">
<circle cx="75" cy="75" r="51.1364" fill="#333333"/>
<circle opacity="0.1" cx="75" cy="75" r="59.6591" fill="#333333" fill-opacity="0.32"/>
<circle opacity="0.1" cx="75" cy="75" r="68.1818" fill="#333333" fill-opacity="0.2"/>
<circle opacity="0.1" cx="75" cy="75" r="75" fill="#333333" fill-opacity="0.2"/>
<g clip-path="url(#clip0)">
<path d="M88.0165 88.2955V75.1705C88.0165 67.9332 82.1765 62.0455 75 62.0455C67.8235 62.0455 61.9834 67.9332 61.9834 75.1705V88.2955C59.9333 88.2955 58.2644 89.9773 58.2644 92.0455V94.858C58.2644 95.3762 58.6803 95.7956 59.1942 95.7956H90.8058C91.3197 95.7956 91.7356 95.3762 91.7356 94.858V92.0455C91.7356 89.9773 90.0667 88.2955 88.0165 88.2955ZM75 67.6704C70.8978 67.6704 67.562 71.035 67.562 75.1704C67.562 75.6886 67.1462 76.108 66.6323 76.108C66.1183 76.108 65.7025 75.6886 65.7025 75.1705C65.7025 70.0014 69.8736 65.7955 75 65.7955C75.514 65.7955 75.9298 66.2148 75.9298 66.733C75.9298 67.2512 75.5139 67.6704 75 67.6704Z" fill="white"/>
<path d="M75.0001 60.1705C75.514 60.1705 75.9298 59.7511 75.9298 59.2329V55.483C75.9298 54.9648 75.5139 54.5455 75.0001 54.5455C74.4862 54.5455 74.0703 54.9648 74.0703 55.483V59.233C74.0703 59.7511 74.4861 60.1705 75.0001 60.1705Z" fill="white"/>
<path d="M84.2958 61.108C84.5336 61.108 84.7715 61.0164 84.9532 60.8333L87.7443 58.0208C88.1075 57.6556 88.1075 57.0613 87.7443 56.6952C87.381 56.3289 86.7927 56.3289 86.4296 56.6952L83.6385 59.5077C83.2753 59.873 83.2753 60.4672 83.6385 60.8333C83.8199 61.0164 84.0578 61.108 84.2958 61.108Z" fill="white"/>
<path d="M65.0433 60.8333C65.2248 61.0164 65.4628 61.108 65.7007 61.108C65.9385 61.108 66.1764 61.0164 66.3581 60.8333C66.7213 60.4681 66.7213 59.8738 66.3581 59.5077L63.5706 56.6952C63.2074 56.3289 62.6191 56.3289 62.2559 56.6952C61.8927 57.0605 61.8927 57.6547 62.2559 58.0208L65.0433 60.8333Z" fill="white"/>
<path d="M95.3565 65.3761C95.1259 64.9129 94.5702 64.7279 94.1089 64.9568L90.3899 66.8318C89.9304 67.0634 89.7452 67.6265 89.974 68.0898C90.1375 68.4185 90.4661 68.608 90.8057 68.608C90.9456 68.608 91.0872 68.5759 91.2216 68.5091L94.9406 66.6341C95.4001 66.4024 95.5853 65.8394 95.3565 65.3761Z" fill="white"/>
<path d="M59.1942 68.608C59.5338 68.608 59.8625 68.4185 60.0259 68.0898C60.2547 67.6265 60.0695 67.0635 59.6101 66.8318L55.891 64.9568C55.4316 64.7298 54.8741 64.9129 54.6434 65.3762C54.4146 65.8394 54.5999 66.4025 55.0593 66.6341L58.7783 68.5091C58.9127 68.5759 59.0544 68.608 59.1942 68.608Z" fill="white"/>
</g>
<defs>
<clipPath id="clip0">
<rect x="54.5455" y="54.5455" width="40.9091" height="41.25" fill="white"/>
</clipPath>
</defs>
</svg>
