<svg width="30" height="30" viewBox="0 0 30 30" fill="none" xmlns="http://www.w3.org/2000/svg">
<g clip-path="url(#clip0)">
<path d="M24.6429 9.64286C24.6429 9.34699 24.403 9.10715 24.1072 9.10715C23.8113 9.10715 23.5714 9.34699 23.5714 9.64286V10.1786H24.6429V9.64286Z" fill="black"/>
<path d="M10.7143 22.0136C11.6019 22.0136 12.3214 21.294 12.3214 20.4064C12.3214 19.5188 11.6019 18.7993 10.7143 18.7993C9.82666 18.7993 9.10712 19.5188 9.10712 20.4064C9.10712 21.294 9.82666 22.0136 10.7143 22.0136Z" fill="#333333" fill-opacity="0.32"/>
<path d="M13.3929 20.4064C13.3929 21.8858 12.1936 23.085 10.7143 23.085C9.23495 23.085 8.03572 21.8858 8.03572 20.4064C8.03572 20.3893 8.04054 20.3738 8.04054 20.3571H6.42857C5.54097 20.3571 4.82143 19.6376 4.82143 18.75V18.2143H3.21429C2.91842 18.2143 2.67857 17.9744 2.67857 17.6786C2.67857 17.3827 2.91842 17.1429 3.21429 17.1429H4.82143V15H1.60714C1.31128 15 1.07143 14.7602 1.07143 14.4643C1.07143 14.1684 1.31128 13.9286 1.60714 13.9286H4.82143V11.7857H2.67857C2.3827 11.7857 2.14286 11.5459 2.14286 11.25C2.14286 10.9541 2.3827 10.7143 2.67857 10.7143H4.82143V9.10714C4.82143 8.21954 5.54097 7.5 6.42857 7.5H17.1429V1.07143C17.1429 0.479695 16.6632 0 16.0714 0H14.16L12.787 1.46571C12.381 1.89683 11.8154 2.14174 11.2232 2.14286H5.91964C5.32745 2.14203 4.76185 1.89683 4.35643 1.46518L2.98286 0H1.07143C0.479695 0 0 0.479695 0 1.07143V26.25C0 26.8417 0.479695 27.3214 1.07143 27.3214H16.0714C16.6632 27.3214 17.1429 26.8417 17.1429 26.25V20.3571H13.388C13.388 20.3738 13.3929 20.3893 13.3929 20.4064Z" fill="black"/>
<path d="M5.91964 1.07143H11.2232C11.5194 1.07107 11.8024 0.948587 12.0054 0.732857L12.6911 0H4.45178L5.13803 0.732322C5.34049 0.94854 5.62343 1.0713 5.91964 1.07143Z" fill="black"/>
<path d="M1.07143 28.3929C0.694068 28.3907 0.324147 28.2877 0 28.0945V28.9286C0 29.5203 0.479695 30 1.07143 30H16.0714C16.6632 30 17.1429 29.5203 17.1429 28.9286V28.0939C16.8188 28.2873 16.4488 28.3905 16.0714 28.3929H1.07143Z" fill="black"/>
<path d="M5.89285 18.75C5.89285 19.0459 6.1327 19.2857 6.42857 19.2857H8.28964C8.72327 18.3366 9.6708 17.7278 10.7143 17.7278C11.7578 17.7278 12.7053 18.3366 13.1389 19.2857H20.3571V16.6071H5.89285V18.75Z" fill="#333333" fill-opacity="0.41"/>
<path d="M19.8214 8.57143H6.42857C6.1327 8.57143 5.89285 8.81127 5.89285 9.10714V15.5357H20.3571V9.10714C20.3571 8.81127 20.1173 8.57143 19.8214 8.57143ZM8.03571 10.7143H7.5C7.20413 10.7143 6.96428 10.4744 6.96428 10.1786C6.96428 9.8827 7.20413 9.64285 7.5 9.64285H8.03571C8.33158 9.64285 8.57142 9.8827 8.57142 10.1786C8.57142 10.4744 8.33158 10.7143 8.03571 10.7143ZM15.5357 12.8571H14.4643V13.9286C14.4643 14.2244 14.2244 14.4643 13.9286 14.4643C13.6327 14.4643 13.3929 14.2244 13.3929 13.9286V12.8571H12.3214C12.0256 12.8571 11.7857 12.6173 11.7857 12.3214C11.7857 12.0256 12.0256 11.7857 12.3214 11.7857H13.3929V10.7143C13.3929 10.4184 13.6327 10.1786 13.9286 10.1786C14.2244 10.1786 14.4643 10.4184 14.4643 10.7143V11.7857H15.5357C15.8316 11.7857 16.0714 12.0256 16.0714 12.3214C16.0714 12.6173 15.8316 12.8571 15.5357 12.8571ZM18.75 10.7143H18.2143C17.9184 10.7143 17.6786 10.4744 17.6786 10.1786C17.6786 9.8827 17.9184 9.64285 18.2143 9.64285H18.75C19.0459 9.64285 19.2857 9.8827 19.2857 10.1786C19.2857 10.4744 19.0459 10.7143 18.75 10.7143Z" fill="#333333" fill-opacity="0.41"/>
<path d="M29.5532 15.3787L27.2775 15H24.1071C23.5154 15 23.0357 14.5203 23.0357 13.9286V12.8571C23.0357 12.5613 23.2756 12.3214 23.5714 12.3214C23.8673 12.3214 24.1071 12.5613 24.1071 12.8571V13.9286H26.5093L25.5 11.5714C25.4133 11.3763 25.2201 11.2504 25.0066 11.25H21.4286V19.2857H23.7986C24.223 18.3098 25.1858 17.6786 26.25 17.6786C27.3142 17.6786 28.277 18.3098 28.7014 19.2857H29.4643C29.7602 19.2857 30 19.0459 30 18.75V15.9053C30.0005 15.6439 29.8112 15.4208 29.5532 15.3787Z" fill="#333333" fill-opacity="0.41"/>
<path d="M26.25 21.9643C27.1376 21.9643 27.8572 21.2447 27.8572 20.3571C27.8572 19.4695 27.1376 18.75 26.25 18.75C25.3624 18.75 24.6429 19.4695 24.6429 20.3571C24.6429 21.2447 25.3624 21.9643 26.25 21.9643Z" fill="#333333" fill-opacity="0.41"/>
</g>
<defs>
<clipPath id="clip0">
<rect width="30" height="30" fill="white"/>
</clipPath>
</defs>
</svg>
