<svg width="30" height="30" viewBox="0 0 30 30" fill="none" xmlns="http://www.w3.org/2000/svg">
<g clip-path="url(#clip0)">
<path d="M15 10.5C15 9.81252 14.4375 9.25002 13.75 9.25002H7.26873L8.1 5.28129C8.11875 5.18754 8.13123 5.08752 8.13123 4.98756C8.13123 4.60008 7.97496 4.25004 7.71873 3.99381L6.72498 3L0.55002 9.17502C0.21252 9.51252 0 9.98127 0 10.5V18.625C0 19.6625 0.83748 20.5 1.875 20.5H10.3125C11.0875 20.5 11.7563 20.0313 12.0375 19.3563L14.8687 12.7438C14.95 12.5313 15 12.3063 15 12.0625V10.5Z" fill="#333333"/>
<path d="M28.125 13H19.6875C18.9125 13 18.2437 13.4687 17.9625 14.1437L15.1312 20.7562C15.05 20.9687 15 21.1937 15 21.4375V23C15 23.6875 15.5625 24.25 16.25 24.25H22.7312L21.8999 28.2187C21.8812 28.3125 21.8687 28.4125 21.8687 28.5124C21.8687 28.8999 22.025 29.25 22.2812 29.5062L23.275 30.4999L29.45 24.3249C29.7875 23.9874 30 23.5187 30 23V14.875C30 13.8375 29.1625 13 28.125 13Z" fill="#333333" fill-opacity="0.32"/>
</g>
<defs>
<clipPath id="clip0">
<rect width="30" height="30" fill="white"/>
</clipPath>
</defs>
</svg>
