<svg width="90" height="90" viewBox="0 0 90 90" fill="none" xmlns="http://www.w3.org/2000/svg">
<g clip-path="url(#clip0)">
<path d="M89.7588 16.0016C89.3367 15.2982 88.4926 15.1575 87.7892 15.5796L66.687 29.6477C66.5463 29.7884 66.4057 29.9291 66.265 30.0697L53.3223 49.7651L50.79 50.1872L57.4021 31.3359C57.6834 30.6325 57.2614 29.7884 56.558 29.507C55.8546 29.2257 55.0105 29.6477 54.7291 30.3511L52.7596 36.5411H40.8017V33.5868L59.9343 19.378C60.497 18.9559 60.6377 17.9711 60.2157 17.4084C59.7936 16.8457 58.8089 16.705 58.2461 17.1271L38.5508 31.7579C38.1287 32.0393 37.988 32.4613 37.988 32.8834V36.5411H35.4558C35.1744 36.5411 34.893 36.6818 34.7524 36.6818L0.707463 57.784C0.00405644 58.206 -0.136625 59.1908 0.285419 59.7535C0.426101 60.1756 0.988826 60.4569 1.41087 60.4569C1.69223 60.4569 1.9736 60.4569 2.11428 60.3162L35.8778 39.3547H39.3948H51.7748L47.5544 51.594C47.4137 52.016 47.4137 52.5788 47.8357 53.0008C48.1171 53.2822 48.5391 53.5635 48.9612 53.5635H49.1018L54.5884 52.7195C55.0105 52.7195 55.2918 52.4381 55.5732 52.1567L63.8734 39.4954H67.2497L65.9836 43.7158H61.9039C61.0598 43.7158 60.497 44.2786 60.497 45.1227C60.497 45.9667 61.0598 46.5295 61.9039 46.5295H64.9988L64.7175 47.7956H60.497C59.653 47.7956 59.0902 48.3583 59.0902 49.2024C59.0902 50.0465 59.653 50.6092 60.497 50.6092H63.8734L63.4513 52.016H63.3107H59.0902C58.2461 52.016 57.6834 52.5788 57.6834 53.4229C57.6834 54.2669 58.2461 54.8297 59.0902 54.8297H62.6073L62.1852 56.2365H35.4558C35.1744 56.2365 34.7524 56.3772 34.471 56.6585L5.77199 82.1219C5.20927 82.6846 5.20927 83.5287 5.63131 84.0914C5.91267 84.3728 6.33472 84.5134 6.61608 84.5134C6.89744 84.5134 7.31949 84.3728 7.60085 84.0914L20.8249 72.2742C27.5776 78.3235 36.1592 81.5591 45.0221 81.5591C65.1395 81.5591 81.5992 65.0994 81.5992 44.982C81.5992 38.5106 79.9111 32.18 76.5347 26.5527L89.3367 17.9711C90.0401 17.5491 90.1808 16.705 89.7588 16.0016ZM40.8017 59.0501H59.0902V61.8637H40.8017V59.0501ZM78.7856 44.982C78.7856 63.5519 63.592 78.7455 45.0221 78.7455C36.8626 78.7455 29.1251 75.7912 23.0758 70.586L36.0185 59.0501H37.988V63.2706C37.988 64.1146 38.5508 64.6774 39.3948 64.6774H60.497C61.3411 64.6774 61.9039 64.1146 61.9039 63.2706V59.0501H63.3107C63.8734 59.0501 64.4361 58.6281 64.7175 58.0653L70.3447 38.3699C70.4854 37.9479 70.3447 37.5259 70.0634 37.1038C69.782 36.6818 69.36 36.5411 68.9379 36.5411H65.5616L68.5159 31.8986L74.2838 28.1002C77.2381 33.1647 78.7856 39.0734 78.7856 44.982Z" fill="white"/>
<path d="M67.3904 14.0321C67.6718 14.0321 67.9532 13.8914 68.2345 13.7507L83.8501 2.4962C84.4128 2.07416 84.5535 1.23007 84.1315 0.526666C83.7094 -0.0360591 82.8654 -0.17674 82.1619 0.245304L66.5463 11.4998C65.9836 11.9219 65.8429 12.7659 66.265 13.4693C66.5463 13.8914 66.9684 14.0321 67.3904 14.0321Z" fill="white"/>
<path d="M25.8894 16.8457C26.1708 16.8457 26.4521 16.705 26.5928 16.5643C32.2201 13.0473 38.5507 11.2184 45.0221 11.2184C51.212 11.2184 57.2613 12.9066 62.6072 16.1423C63.3106 16.5643 64.1547 16.283 64.5768 15.7202C64.9988 15.0168 64.7174 14.1728 64.1547 13.7507C58.3868 10.2337 51.7748 8.40482 45.0221 8.40482C37.988 8.40482 31.0946 10.3744 25.186 14.3134C24.4826 14.7355 24.3419 15.5796 24.7639 16.283C25.0453 16.5643 25.4674 16.8457 25.8894 16.8457Z" fill="white"/>
<path d="M10.1331 50.6092H10.2738C10.9772 50.4686 11.5399 49.7652 11.5399 49.0617C11.3993 47.6549 11.2586 46.3888 11.2586 44.982C11.2586 36.2597 14.6349 27.8189 20.6842 21.4882C21.2469 20.9255 21.2469 20.0814 20.6842 19.5187C20.1215 18.9559 19.2774 18.9559 18.7147 19.5187C12.1027 26.412 8.44495 35.4157 8.44495 44.982C8.44495 46.3888 8.58563 47.9363 8.72631 49.3431C8.86699 50.0465 9.42972 50.6092 10.1331 50.6092Z" fill="white"/>
<path d="M1.83292 86.2016L0.426103 87.6084C-0.136622 88.1711 -0.136622 89.0152 0.426103 89.5779C0.707465 89.8593 0.988828 90 1.41087 90C1.83292 90 2.11428 89.8593 2.39564 89.5779L3.80245 88.1711C4.36518 87.6084 4.36518 86.7643 3.80245 86.2016C3.23973 85.6389 2.39564 85.6389 1.83292 86.2016Z" fill="white"/>
</g>
<defs>
<clipPath id="clip0">
<rect width="90" height="90" fill="white"/>
</clipPath>
</defs>
</svg>
