<svg id="Capa_1" enable-background="new 0 0 512 512" height="512" viewBox="0 0 512 512" width="512" xmlns="http://www.w3.org/2000/svg"><g><path d="m497 152c-8.284 0-15 6.716-15 15v25h-185c-8.284 0-15 6.716-15 15v45h-71v-222h105c8.284 0 15-6.716 15-15s-6.716-15-15-15h-240c-8.284 0-15 6.716-15 15s6.716 15 15 15h15v30h-15c-8.284 0-15 6.716-15 15v80c0 8.284 6.716 15 15 15h60c8.284 0 15-6.716 15-15v-80c0-8.284-6.716-15-15-15h-15v-30h60v222h-52.509c-6.968-34.192-37.271-60-73.491-60h-25v-25c0-8.284-6.716-15-15-15s-15 6.716-15 15v130c0 24.813 20.187 45 45 45h77.218l102.143 55-68.137 36.689c-7.993-7.259-18.601-11.689-30.224-11.689-24.813 0-45 20.187-45 45s20.187 45 45 45 45-20.187 45-45c0-2.349-.182-4.656-.531-6.909l85.531-46.055 85.531 46.055c-.349 2.253-.531 4.56-.531 6.909 0 24.813 20.187 45 45 45s45-20.187 45-45-20.187-45-45-45c-11.623 0-22.231 4.43-30.224 11.689l-68.137-36.689 102.143-55h77.218c24.813 0 45-20.187 45-45v-130c0-8.284-6.716-15-15-15zm-376-12h-30v-50h30zm5 342c-8.271 0-15-6.729-15-15s6.729-15 15-15 15 6.729 15 15-6.729 15-15 15zm260-30c8.271 0 15 6.729 15 15s-6.729 15-15 15-15-6.729-15-15 6.729-15 15-15zm96-200h-36.667v-30h36.667zm-103.333 0v-30h36.667v30zm-66.667-30h36.667v30h-36.667zm-214.57 30h-67.43v-30h25c19.556 0 36.239 12.539 42.43 30zm158.57 127.964-70.504-37.964h141.008zm226-82.964c0 8.271-6.729 15-15 15h-422c-8.271 0-15-6.729-15-15v-15h452z"/></g></svg>