<svg width="31" height="30" viewBox="0 0 31 30" fill="none" xmlns="http://www.w3.org/2000/svg">
<g clip-path="url(#clip0)">
<path d="M11.422 22.8516C11.422 16.2323 11.4281 15.4143 11.422 15.4113C11.41 15.4078 11.2245 15.4102 8.86005 15.4102C8.37211 15.4102 7.95103 15.0457 7.92935 14.5717C7.90585 14.0684 8.3191 13.6523 8.83174 13.6523C11.2208 13.6523 11.41 13.6547 11.422 13.6512C11.4281 13.6482 11.422 12.9026 11.422 7.14844C11.422 6.66328 11.8269 6.26953 12.3256 6.26953H22.5073C20.1231 3.85605 16.79 2.40234 13.169 2.40234C5.99445 2.40234 0.157227 8.05371 0.157227 15C0.157227 21.9463 5.99445 27.5977 13.169 27.5977C16.7882 27.5977 20.1218 26.1451 22.5073 23.7305H12.3256C11.8269 23.7305 11.422 23.3367 11.422 22.8516V22.8516ZM7.8679 9.90234H9.28534C9.77328 9.90234 10.1944 10.2668 10.216 10.7408C10.2395 11.2441 9.82629 11.6602 9.31365 11.6602H7.89621C7.40827 11.6602 6.9872 11.2957 6.96551 10.8217C6.94202 10.3184 7.35526 9.90234 7.8679 9.90234ZM8.83174 19.1602H5.96854C5.4806 19.1602 5.05953 18.7957 5.03784 18.3217C5.01435 17.8184 5.42759 17.4023 5.94023 17.4023H8.80342C9.29136 17.4023 9.71244 17.7668 9.73412 18.2408C9.75762 18.7441 9.34437 19.1602 8.83174 19.1602Z" fill="#333333"/>
<path d="M29.7814 8.02734H14.3867L22.1969 13.8841L29.7814 8.02734Z" fill="#333333"/>
<path d="M22.7668 15.6884C22.4426 15.9387 21.9832 15.9435 21.6533 15.696L13.2292 9.37904V21.0937C13.2292 21.5791 13.6338 21.9727 14.1328 21.9727H30.0963C30.5954 21.9727 30.9999 21.5791 30.9999 21.0937V9.3307L22.7668 15.6884Z" fill="#333333"/>
</g>
<defs>
<clipPath id="clip0">
<rect x="0.157227" width="30.8427" height="30" fill="white"/>
</clipPath>
</defs>
</svg>
