<svg width="30" height="30" viewBox="0 0 30 30" fill="none" xmlns="http://www.w3.org/2000/svg">
<path d="M23.2031 9.375C22.7177 9.375 22.3242 9.76852 22.3242 10.2539V11.7803H20.5664V13.5381H22.3242V14.9414C22.3242 18.98 19.0386 22.2656 15 22.2656C10.9614 22.2656 7.67578 18.98 7.67578 14.9414V13.5381H9.43359V11.7803H7.67578V10.2539C7.67578 9.76852 7.28227 9.375 6.79688 9.375C6.31148 9.375 5.91797 9.76852 5.91797 10.2539V14.9414C5.91797 19.6528 9.52412 23.5372 14.1211 23.9808V29.1211C14.1211 29.6065 14.5146 30 15 30C15.4854 30 15.8789 29.6065 15.8789 29.1211V23.9808C20.4759 23.5373 24.082 19.6528 24.082 14.9414V10.2539C24.082 9.76852 23.6885 9.375 23.2031 9.375Z" fill="black"/>
<path d="M9.43359 13.5381V14.9414C9.43359 18.0105 11.9309 20.5078 15 20.5078C18.0691 20.5078 20.5664 18.0105 20.5664 14.9414V13.5381H9.43359Z" fill="black"/>
<path d="M15 0C11.9309 0 9.43359 2.49727 9.43359 5.56641V11.7803H20.5664V5.56641C20.5664 2.49727 18.0691 0 15 0ZM13.3594 10.0066C12.7121 10.0066 12.1875 9.48193 12.1875 8.83471C12.1875 8.18748 12.7121 7.66283 13.3594 7.66283C14.0066 7.66283 14.5312 8.18748 14.5312 8.83471C14.5312 9.48193 14.0066 10.0066 13.3594 10.0066ZM13.3594 7.07689C12.7121 7.07689 12.1875 6.55225 12.1875 5.90502C12.1875 5.25779 12.7121 4.73314 13.3594 4.73314C14.0066 4.73314 14.5312 5.25779 14.5312 5.90502C14.5312 6.55225 14.0066 7.07689 13.3594 7.07689ZM16.6406 10.0066C15.9934 10.0066 15.4688 9.48193 15.4688 8.83471C15.4688 8.18748 15.9934 7.66283 16.6406 7.66283C17.2879 7.66283 17.8125 8.18748 17.8125 8.83471C17.8125 9.48193 17.2879 10.0066 16.6406 10.0066ZM16.6406 7.07689C15.9934 7.07689 15.4688 6.55225 15.4688 5.90502C15.4688 5.25779 15.9934 4.73314 16.6406 4.73314C17.2879 4.73314 17.8125 5.25779 17.8125 5.90502C17.8125 6.55225 17.2879 7.07689 16.6406 7.07689Z" fill="#333333" fill-opacity="0.41"/>
</svg>
