<svg width="300" height="98" viewBox="0 0 300 98" fill="none" xmlns="http://www.w3.org/2000/svg">
<g clip-path="url(#clip0)">
<path d="M12.6193 40.5413H14.0853V39.0754H12.6193V40.5413Z" fill="white"/>
<path d="M12.6193 43.8616V47.1832H14.0852V43.8616H12.6193ZM12.6193 50.5048V53.8265H14.0852V50.5048H12.6193Z" fill="white"/>
<path d="M12.6193 58.6168H14.0853V57.1508H12.6193V58.6168Z" fill="white"/>
<path d="M18.1785 52.4005H19.6445V50.9345H18.1785V52.4005Z" fill="white"/>
<path d="M18.1785 46.7576H19.6445V45.2917H18.1785V46.7576Z" fill="white"/>
<path d="M23.7377 51.5116H25.2033V50.0456H23.7377V51.5116Z" fill="white"/>
<path d="M23.7377 47.6461H25.2033V46.1806H23.7377V47.6461Z" fill="white"/>
<path d="M73.5127 51.5116H74.9786V50.0456H73.5127V51.5116Z" fill="white"/>
<path d="M73.5127 47.6461H74.9786V46.1806H73.5127V47.6461Z" fill="white"/>
<path d="M29.2969 50.6226H30.7624V49.1566H29.2969V50.6226Z" fill="white"/>
<path d="M29.2969 48.5355H30.7624V47.0695H29.2969V48.5355Z" fill="white"/>
<path d="M34.8561 58.9706H36.322V57.5051H34.8561V58.9706Z" fill="white"/>
<path d="M36.322 54.0394V50.5769H34.8561V54.0394H36.322ZM36.322 47.1132V43.649H34.8561V47.1132H36.322Z" fill="white"/>
<path d="M34.8561 40.1866H36.322V38.7211H34.8561V40.1866Z" fill="white"/>
<path d="M40.4216 69.2709H41.8875V67.8054H40.4216V69.2709Z" fill="white"/>
<path d="M41.8876 64.8881V61.9716H40.4216V64.8881H41.8876ZM41.8876 59.0538V56.1373H40.4216V59.0538H41.8876ZM41.8876 53.2204V50.3031H40.4216V53.2204H41.8876ZM41.8876 47.3862V44.4688H40.4216V47.3862H41.8876ZM41.8876 41.5519V38.6354H40.4216V41.5519H41.8876ZM41.8876 35.7177V32.8012H40.4216V35.7177H41.8876Z" fill="white"/>
<path d="M40.4216 29.8867H41.8875V28.4208H40.4216V29.8867Z" fill="white"/>
<path d="M45.9808 93.2537H47.4463V91.7878H45.9808V93.2537Z" fill="white"/>
<path d="M47.4464 88.8213V85.8604H45.9808V88.8213H47.4464ZM47.4464 82.8977V79.9372H45.9808V82.8977H47.4464ZM47.4464 76.9754V74.0149H45.9808V76.9754H47.4464ZM47.4464 71.0527V68.0913H45.9808V71.0527H47.4464ZM47.4464 65.1303V62.1694H45.9808V65.1303H47.4464ZM47.4464 59.2084V56.2458H45.9808V59.2084H47.4464ZM47.4464 53.2852V50.3243H45.9808V53.2852H47.4464ZM47.4464 47.3625V44.4007H45.9808V47.3625H47.4464ZM47.4464 41.4393V38.4784H45.9808V41.4393H47.4464ZM47.4464 35.5174V32.5548H45.9808V35.5174H47.4464ZM47.4464 29.5938V26.6329H45.9808V29.5938H47.4464ZM47.4464 23.6719V20.7093H45.9808V23.6719H47.4464ZM47.4464 17.7484V14.7874H45.9808V17.7484H47.4464ZM47.4464 11.8264V8.86382H45.9808V11.8264H47.4464Z" fill="white"/>
<path d="M45.9808 5.90431H47.4463V4.43837H45.9808V5.90431Z" fill="white"/>
<path d="M51.54 65.7219H53.006V64.256H51.54V65.7219Z" fill="white"/>
<path d="M53.006 61.4553V58.6543H51.54V61.4553H53.006ZM53.006 55.8529V53.0511H51.54V55.8529H53.006ZM53.006 50.2488V47.4478H51.54V50.2488H53.006ZM53.006 44.646V41.845H51.54V44.646H53.006ZM53.006 39.0436V36.241H51.54V39.0436H53.006Z" fill="white"/>
<path d="M51.54 33.4361H53.006V31.9702H51.54V33.4361Z" fill="white"/>
<path d="M57.0992 57.7278H58.5653V56.2619H57.0992V57.7278Z" fill="white"/>
<path d="M58.5652 53.2953V50.329H57.0992V53.2953H58.5652ZM58.5652 47.3634V44.3962H57.0992V47.3634H58.5652Z" fill="white"/>
<path d="M57.0992 41.4303H58.5653V39.9643H57.0992V41.4303Z" fill="white"/>
<path d="M62.6584 65.7219H64.124V64.256H62.6584V65.7219Z" fill="white"/>
<path d="M64.124 61.4553V58.6543H62.6584V61.4553H64.124ZM64.124 55.8529V53.0511H62.6584V55.8529H64.124ZM64.124 50.2488V47.4478H62.6584V50.2488H64.124ZM64.124 44.646V41.845H62.6584V44.646H64.124ZM64.124 39.0436V36.241H62.6584V39.0436H64.124Z" fill="white"/>
<path d="M62.6584 33.4361H64.124V31.9702H62.6584V33.4361Z" fill="white"/>
<path d="M68.2177 54.172H69.6836V52.7061H68.2177V54.172Z" fill="white"/>
<path d="M68.2177 50.1336H69.6836V47.5591H68.2177V50.1336Z" fill="white"/>
<path d="M68.2177 44.9862H69.6836V43.5201H68.2177V44.9862Z" fill="white"/>
<path d="M79.3361 54.172H80.802V52.7061H79.3361V54.172Z" fill="white"/>
<path d="M79.3361 50.1336H80.802V47.5591H79.3361V50.1336Z" fill="white"/>
<path d="M79.3361 44.9862H80.802V43.5201H79.3361V44.9862Z" fill="white"/>
<path d="M84.8953 64.833H86.3612V63.3671H84.8953V64.833Z" fill="white"/>
<path d="M86.3612 60.1425V56.9148H84.8953V60.1425H86.3612ZM86.3612 53.6883V50.4614H84.8953V53.6883H86.3612ZM86.3612 47.2354V44.0077H84.8953V47.2354H86.3612ZM86.3612 40.7812V37.5551H84.8953V40.7812H86.3612Z" fill="white"/>
<path d="M84.8953 34.3251H86.3612V32.8591H84.8953V34.3251Z" fill="white"/>
<path d="M124.08 51.5116H125.546V50.0456H124.08V51.5116Z" fill="white"/>
<path d="M124.08 47.6461H125.546V46.1806H124.08V47.6461Z" fill="white"/>
<path d="M129.91 54.172H131.376V52.7061H129.91V54.172Z" fill="white"/>
<path d="M129.91 50.1336H131.376V47.5591H129.91V50.1336Z" fill="white"/>
<path d="M129.91 44.9862H131.376V43.5201H129.91V44.9862Z" fill="white"/>
<path d="M135.469 49.7348H136.935V47.9585H135.469V49.7348Z" fill="white"/>
<path d="M90.4545 78.1544H91.9204V76.6885H90.4545V78.1544Z" fill="white"/>
<path d="M91.9204 73.7597V70.8282H90.4545V73.7597H91.9204ZM91.9204 67.898V64.9678H90.4545V67.898H91.9204ZM91.9204 62.0359V59.1057H90.4545V62.0359H91.9204ZM91.9204 56.1755V53.2436H90.4545V56.1755H91.9204ZM91.9204 50.3138V47.384H90.4545V50.3138H91.9204ZM91.9204 44.4522V41.5215H90.4545V44.4522H91.9204ZM91.9204 38.5917V35.6599H90.4545V38.5917H91.9204ZM91.9204 32.7292V29.7994H90.4545V32.7292H91.9204ZM91.9204 26.8676V23.9374H90.4545V26.8676H91.9204Z" fill="white"/>
<path d="M90.4545 21.0032H91.9204V19.5377H90.4545V21.0032Z" fill="white"/>
<path d="M96.0137 60.3947H97.4797V58.9287H96.0137V60.3947Z" fill="white"/>
<path d="M97.4796 56.0465V53.1658H96.0137V56.0465H97.4796ZM97.4796 50.2854V47.4067H96.0137V50.2854H97.4796ZM97.4796 44.5264V41.6456H96.0137V44.5264H97.4796Z" fill="white"/>
<path d="M96.0137 38.7694H97.4797V37.3039H96.0137V38.7694Z" fill="white"/>
<path d="M101.573 54.172H103.039V52.7061H101.573V54.172Z" fill="white"/>
<path d="M101.573 50.1336H103.039V47.5591H101.573V50.1336Z" fill="white"/>
<path d="M101.573 44.9862H103.039V43.5201H101.573V44.9862Z" fill="white"/>
<path d="M107.138 51.5116H108.604V50.0456H107.138V51.5116Z" fill="white"/>
<path d="M107.138 47.6461H108.604V46.1806H107.138V47.6461Z" fill="white"/>
<path d="M141.26 54.172H142.726V52.7061H141.26V54.172Z" fill="white"/>
<path d="M141.26 50.1336H142.726V47.5591H141.26V50.1336Z" fill="white"/>
<path d="M141.26 44.9862H142.726V43.5201H141.26V44.9862Z" fill="white"/>
<path d="M146.819 64.833H148.285V63.3671H146.819V64.833Z" fill="white"/>
<path d="M148.285 60.1425V56.9148H146.819V60.1425H148.285ZM148.285 53.6883V50.4614H146.819V53.6883H148.285ZM148.285 47.2354V44.0077H146.819V47.2354H148.285ZM148.285 40.7812V37.5551H146.819V40.7812H148.285Z" fill="white"/>
<path d="M146.819 34.3251H148.285V32.8591H146.819V34.3251Z" fill="white"/>
<path d="M152.379 55.0605H153.845V53.595H152.379V55.0605Z" fill="white"/>
<path d="M152.379 50.4302H153.845V47.2628H152.379V50.4302Z" fill="white"/>
<path d="M152.379 44.0971H153.845V42.6312H152.379V44.0971Z" fill="white"/>
<path d="M157.938 60.3947H159.404V58.9287H157.938V60.3947Z" fill="white"/>
<path d="M159.404 56.0465V53.1658H157.938V56.0465H159.404ZM159.404 50.2854V47.4067H157.938V50.2854H159.404ZM159.404 44.5264V41.6456H157.938V44.5264H159.404Z" fill="white"/>
<path d="M157.938 38.7694H159.404V37.3039H157.938V38.7694Z" fill="white"/>
<path d="M163.497 54.172H164.963V52.7061H163.497V54.172Z" fill="white"/>
<path d="M163.497 50.1336H164.963V47.5591H163.497V50.1336Z" fill="white"/>
<path d="M163.497 44.9862H164.963V43.5201H163.497V44.9862Z" fill="white"/>
<path d="M169.062 51.5116H170.529V50.0456H169.062V51.5116Z" fill="white"/>
<path d="M169.062 47.6461H170.529V46.1806H169.062V47.6461Z" fill="white"/>
<path d="M112.698 64.833H114.164V63.3671H112.698V64.833Z" fill="white"/>
<path d="M114.164 60.1425V56.9148H112.698V60.1425H114.164ZM114.164 53.6883V50.4614H112.698V53.6883H114.164ZM114.164 47.2354V44.0077H112.698V47.2354H114.164ZM114.164 40.7812V37.5551H112.698V40.7812H114.164Z" fill="white"/>
<path d="M112.698 34.3251H114.164V32.8591H112.698V34.3251Z" fill="white"/>
<path d="M118.257 55.9499H119.723V54.4839H118.257V55.9499Z" fill="white"/>
<path d="M118.257 50.7261H119.723V46.9665H118.257V50.7261Z" fill="white"/>
<path d="M118.257 43.2082H119.723V41.7422H118.257V43.2082Z" fill="white"/>
<path d="M175.685 40.5413H177.15V39.0754H175.685V40.5413Z" fill="white"/>
<path d="M175.685 43.8616V47.1832H177.151V43.8616H175.685ZM175.685 50.5048V53.8265H177.151V50.5048H175.685Z" fill="white"/>
<path d="M175.685 58.6168H177.15V57.1508H175.685V58.6168Z" fill="white"/>
<path d="M181.244 52.4005H182.71V50.9345H181.244V52.4005Z" fill="white"/>
<path d="M181.244 46.7576H182.71V45.2917H181.244V46.7576Z" fill="white"/>
<path d="M186.803 51.5116H188.269V50.0456H186.803V51.5116Z" fill="white"/>
<path d="M186.803 47.6461H188.269V46.1806H186.803V47.6461Z" fill="white"/>
<path d="M236.578 57.7278H238.044V56.2619H236.578V57.7278Z" fill="white"/>
<path d="M238.044 53.2953V50.329H236.578V53.2953H238.044ZM238.044 47.3634V44.3962H236.578V47.3634H238.044Z" fill="white"/>
<path d="M236.578 41.4303H238.044V39.9643H236.578V41.4303Z" fill="white"/>
<path d="M192.369 50.6226H193.834V49.1566H192.369V50.6226Z" fill="white"/>
<path d="M192.369 48.5355H193.834V47.0695H192.369V48.5355Z" fill="white"/>
<path d="M197.928 58.9706H199.394V57.5051H197.928V58.9706Z" fill="white"/>
<path d="M199.394 54.0394V50.5769H197.928V54.0394H199.394ZM199.394 47.1132V43.649H197.928V47.1132H199.394Z" fill="white"/>
<path d="M197.928 40.1866H199.394V38.7211H197.928V40.1866Z" fill="white"/>
<path d="M203.487 69.2709H204.953V67.8054H203.487V69.2709Z" fill="white"/>
<path d="M204.953 64.8881V61.9716H203.487V64.8881H204.953ZM204.953 59.0538V56.1373H203.487V59.0538H204.953ZM204.953 53.2204V50.3031H203.487V53.2204H204.953ZM204.953 47.3862V44.4688H203.487V47.3862H204.953ZM204.953 41.5519V38.6354H203.487V41.5519H204.953ZM204.953 35.7177V32.8012H203.487V35.7177H204.953Z" fill="white"/>
<path d="M203.487 29.8867H204.953V28.4208H203.487V29.8867Z" fill="white"/>
<path d="M209.046 60.3947H210.511V58.9287H209.046V60.3947Z" fill="white"/>
<path d="M210.512 56.0465V53.1658H209.046V56.0465H210.512ZM210.512 50.2854V47.4067H209.046V50.2854H210.512ZM210.512 44.5264V41.6456H209.046V44.5264H210.512Z" fill="white"/>
<path d="M209.046 38.7694H210.511V37.3039H209.046V38.7694Z" fill="white"/>
<path d="M214.605 65.7219H216.071V64.256H214.605V65.7219Z" fill="white"/>
<path d="M216.071 61.4553V58.6543H214.605V61.4553H216.071ZM216.071 55.8529V53.0511H214.605V55.8529H216.071ZM216.071 50.2488V47.4478H214.605V50.2488H216.071ZM216.071 44.646V41.845H214.605V44.646H216.071ZM216.071 39.0436V36.241H214.605V39.0436H216.071Z" fill="white"/>
<path d="M214.605 33.4361H216.071V31.9702H214.605V33.4361Z" fill="white"/>
<path d="M220.165 78.1544H221.631V76.6885H220.165V78.1544Z" fill="white"/>
<path d="M221.63 73.7597V70.8282H220.165V73.7597H221.63ZM221.63 67.898V64.9678H220.165V67.898H221.63ZM221.63 62.0359V59.1057H220.165V62.0359H221.63ZM221.63 56.1755V53.2436H220.165V56.1755H221.63ZM221.63 50.3138V47.384H220.165V50.3138H221.63ZM221.63 44.4522V41.5215H220.165V44.4522H221.63ZM221.63 38.5917V35.6599H220.165V38.5917H221.63ZM221.63 32.7292V29.7994H220.165V32.7292H221.63ZM221.63 26.8676V23.9374H220.165V26.8676H221.63Z" fill="white"/>
<path d="M220.165 21.0032H221.631V19.5377H220.165V21.0032Z" fill="white"/>
<path d="M225.724 74.5987H227.19V73.1327H225.724V74.5987Z" fill="white"/>
<path d="M227.19 70.2804V67.4221H225.724V70.2804H227.19ZM227.19 64.565V61.7062H225.724V64.565H227.19ZM227.19 58.8496V55.9913H225.724V58.8496H227.19ZM227.19 53.1342V50.2775H225.724V53.1342H227.19ZM227.19 47.4188V44.5617H225.724V47.4188H227.19ZM227.19 41.7038V38.8467H225.724V41.7038H227.19ZM227.19 35.9884V33.1317H225.724V35.9884H227.19ZM227.19 30.273V27.4159H225.724V30.273H227.19Z" fill="white"/>
<path d="M225.724 24.5595H227.19V23.0935H225.724V24.5595Z" fill="white"/>
<path d="M231.283 69.2709H232.749V67.8054H231.283V69.2709Z" fill="white"/>
<path d="M232.748 64.8881V61.9716H231.283V64.8881H232.748ZM232.748 59.0538V56.1373H231.283V59.0538H232.748ZM232.748 53.2204V50.3031H231.283V53.2204H232.748ZM232.748 47.3862V44.4688H231.283V47.3862H232.748ZM232.748 41.5519V38.6354H231.283V41.5519H232.748ZM232.748 35.7177V32.8012H231.283V35.7177H232.748Z" fill="white"/>
<path d="M231.283 29.8867H232.749V28.4208H231.283V29.8867Z" fill="white"/>
<path d="M242.401 74.5987H243.867V73.1327H242.401V74.5987Z" fill="white"/>
<path d="M243.867 70.2804V67.4221H242.401V70.2804H243.867ZM243.867 64.565V61.7062H242.401V64.565H243.867ZM243.867 58.8496V55.9913H242.401V58.8496H243.867ZM243.867 53.1342V50.2775H242.401V53.1342H243.867ZM243.867 47.4188V44.5617H242.401V47.4188H243.867ZM243.867 41.7038V38.8467H242.401V41.7038H243.867ZM243.867 35.9884V33.1317H242.401V35.9884H243.867ZM243.867 30.273V27.4159H242.401V30.273H243.867Z" fill="white"/>
<path d="M242.401 24.5595H243.867V23.0935H242.401V24.5595Z" fill="white"/>
<path d="M247.961 84.3703H249.427V82.9047H247.961V84.3703Z" fill="white"/>
<path d="M249.426 79.9399V76.979H247.961V79.9399H249.426ZM249.426 74.0172V71.0554H247.961V74.0172H249.426ZM249.426 68.094V65.1318H247.961V68.094H249.426ZM249.426 62.1704V59.2082H247.961V62.1704H249.426ZM249.426 56.2477V53.2859H247.961V56.2477H249.426ZM249.426 50.3241V47.3623H247.961V50.3241H249.426ZM249.426 44.4005V41.4392H247.961V44.4005H249.426ZM249.426 38.477V35.5156H247.961V38.477H249.426ZM249.426 32.5546V29.5924H247.961V32.5546H249.426ZM249.426 26.6315V23.6688H247.961V26.6315H249.426ZM249.426 20.7079V17.7469H247.961V20.7079H249.426Z" fill="white"/>
<path d="M247.961 14.7874H249.427V13.3214H247.961V14.7874Z" fill="white"/>
<path d="M287.146 51.5116H288.612V50.0456H287.146V51.5116Z" fill="white"/>
<path d="M287.146 47.6461H288.612V46.1806H287.146V47.6461Z" fill="white"/>
<path d="M292.975 54.172H294.441V52.7061H292.975V54.172Z" fill="white"/>
<path d="M292.975 50.1336H294.441V47.5591H292.975V50.1336Z" fill="white"/>
<path d="M292.975 44.9862H294.441V43.5201H292.975V44.9862Z" fill="white"/>
<path d="M298.534 49.7348H300V47.9585H298.534V49.7348Z" fill="white"/>
<path d="M0 47.6461H1.46593V46.1806H0V47.6461Z" fill="white"/>
<path d="M0 51.5116H1.46593V50.0456H0V51.5116Z" fill="white"/>
<path d="M6.20984 49.7348H7.67578V47.9585H6.20984V49.7348Z" fill="white"/>
<path d="M253.52 97.6921H254.986V96.2262H253.52V97.6921Z" fill="white"/>
<path d="M254.986 93.3531V90.4815H253.52V93.3531H254.986ZM254.986 87.6099V84.7382H253.52V87.6099H254.986ZM254.986 81.8666V78.995H253.52V81.8666H254.986ZM254.986 76.1238V73.2522H253.52V76.1238H254.986ZM254.986 70.3797V67.5085H253.52V70.3797H254.986ZM254.986 64.6369V61.7652H253.52V64.6369H254.986ZM254.986 58.8936V56.022H253.52V58.8936H254.986ZM254.986 53.1504V50.2788H253.52V53.1504H254.986ZM254.986 47.4071V44.5359H253.52V47.4071H254.986ZM254.986 41.6643V38.7944H253.52V41.6643H254.986ZM254.986 35.9227V33.0507H253.52V35.9227H254.986ZM254.986 30.1791V27.3079H253.52V30.1791H254.986ZM254.986 24.4362V21.5646H253.52V24.4362H254.986ZM254.986 18.693V15.8214H253.52V18.693H254.986ZM254.986 12.9498V10.0781H253.52V12.9498H254.986ZM254.986 7.20692V4.3353H253.52V7.20692H254.986Z" fill="white"/>
<path d="M253.52 1.46593H254.986V0H253.52V1.46593Z" fill="white"/>
<path d="M259.085 74.5987H260.551V73.1327H259.085V74.5987Z" fill="white"/>
<path d="M260.551 70.2804V67.4221H259.085V70.2804H260.551ZM260.551 64.565V61.7062H259.085V64.565H260.551ZM260.551 58.8496V55.9913H259.085V58.8496H260.551ZM260.551 53.1342V50.2775H259.085V53.1342H260.551ZM260.551 47.4188V44.5617H259.085V47.4188H260.551ZM260.551 41.7038V38.8467H259.085V41.7038H260.551ZM260.551 35.9884V33.1317H259.085V35.9884H260.551ZM260.551 30.273V27.4159H259.085V30.273H260.551Z" fill="white"/>
<path d="M259.085 24.5595H260.551V23.0935H259.085V24.5595Z" fill="white"/>
<path d="M264.645 64.833H266.111V63.3671H264.645V64.833Z" fill="white"/>
<path d="M266.11 60.1425V56.9148H264.645V60.1425H266.11ZM266.11 53.6883V50.4614H264.645V53.6883H266.11ZM266.11 47.2354V44.0077H264.645V47.2354H266.11ZM266.11 40.7812V37.5551H264.645V40.7812H266.11Z" fill="white"/>
<path d="M264.645 34.3251H266.111V32.8591H264.645V34.3251Z" fill="white"/>
<path d="M270.204 55.9499H271.669V54.4839H270.204V55.9499Z" fill="white"/>
<path d="M270.204 50.7261H271.669V46.9665H270.204V50.7261Z" fill="white"/>
<path d="M270.204 43.2082H271.669V41.7422H270.204V43.2082Z" fill="white"/>
<path d="M275.763 64.833H277.229V63.3671H275.763V64.833Z" fill="white"/>
<path d="M277.229 60.1425V56.9148H275.763V60.1425H277.229ZM277.229 53.6883V50.4614H275.763V53.6883H277.229ZM277.229 47.2354V44.0077H275.763V47.2354H277.229ZM277.229 40.7812V37.5551H275.763V40.7812H277.229Z" fill="white"/>
<path d="M275.763 34.3251H277.229V32.8591H275.763V34.3251Z" fill="white"/>
<path d="M281.322 55.9499H282.788V54.4839H281.322V55.9499Z" fill="white"/>
<path d="M281.322 50.7261H282.788V46.9665H281.322V50.7261Z" fill="white"/>
<path d="M281.322 43.2082H282.788V41.7422H281.322V43.2082Z" fill="white"/>
</g>
<defs>
<clipPath id="clip0">
<rect width="300" height="97.6927" fill="white"/>
</clipPath>
</defs>
</svg>
