<svg width="30" height="30" viewBox="0 0 30 30" fill="none" xmlns="http://www.w3.org/2000/svg">
<path d="M0.491806 27.2951H29.0164V29.2623H0.491806V27.2951Z" fill="#333333" fill-opacity="0.2"/>
<path d="M12.541 26.3115C11.7262 26.3115 11.0656 25.6509 11.0656 24.8361V24.3443H10.3279V27.2951H11.3115C11.9351 27.2934 12.4906 26.8996 12.6983 26.3115H12.541Z" fill="#333333" fill-opacity="0.17"/>
<path d="M2.95082 20.9016V25.3279C2.95082 26.4143 3.83165 27.2951 4.91803 27.2951H10.3279V24.3443H5.90164V20.9016" fill="black"/>
<path d="M3.93442 7.62296C2.57644 7.62296 1.4754 8.72399 1.4754 10.082V12.0492C1.4754 12.864 2.13602 13.5246 2.95081 13.5246H3.93442C4.20602 13.5246 4.42622 13.3044 4.42622 13.0328V10.5738H7.86884C8.68363 10.5738 9.34425 9.91315 9.34425 9.09837V7.62296H3.93442Z" fill="#333333" fill-opacity="0.2"/>
<path d="M2.95082 20.9016V25.3279C2.95082 26.4143 3.83165 27.2951 4.91804 27.2951H0.491806V20.4098C0.491806 18.7803 1.81305 17.459 3.44263 17.459H5.40984C7.03942 17.459 8.36066 18.7803 8.36066 20.4098V24.3443H5.90164V20.9016" fill="black"/>
<path d="M5.90164 15.9836L2.95082 16.9672V15.4918H5.90164V15.9836Z" fill="#333333" fill-opacity="0.17"/>
<path d="M3.93443 13.5246H2.95082V14.5082H3.93443C4.20602 14.5082 4.42623 14.288 4.42623 14.0164V13.0328C4.42623 13.3044 4.20602 13.5246 3.93443 13.5246Z" fill="#333333" fill-opacity="0.17"/>
<path d="M4.42622 10.5738H7.86885V11.5574H4.42622V10.5738Z" fill="#333333" fill-opacity="0.17"/>
<path d="M26.5574 20.9016V25.3279C26.5574 26.4143 25.6765 27.2951 24.5902 27.2951H19.1803V24.3443H23.6066V20.9016" fill="black"/>
<path d="M18.6885 26.3115C17.8737 26.3115 17.2131 25.6508 17.2131 24.8361C17.2131 24.7967 17.2131 24.7573 17.2131 24.7179C16.7556 25.1257 16.5976 25.7733 16.8162 26.3458C17.0347 26.9181 17.5841 27.296 18.1967 27.2951H19.1803V26.3115H18.6885Z" fill="#333333" fill-opacity="0.17"/>
<path d="M26.5574 20.9016V25.3279C26.5574 26.4143 25.6765 27.2951 24.5902 27.2951H29.0164V20.4098C29.0164 18.7803 27.6951 17.459 26.0656 17.459H24.0984C22.4688 17.459 21.1475 18.7803 21.1475 20.4098V24.3443H23.6066V20.9016" fill="black"/>
<path d="M21.6393 6.63935C21.0827 6.63671 20.5508 6.87012 20.1759 7.28172C19.8008 7.69308 19.6179 8.24419 19.6721 8.79843C19.8004 9.8279 20.6855 10.5944 21.7229 10.5738H24.5902V12.0492C24.5902 12.5924 25.0306 13.0328 25.5738 13.0328H26.5574C28.187 13.0328 29.5082 11.7115 29.5082 10.082V9.59017C29.5082 7.96059 28.187 6.63935 26.5574 6.63935H21.6393Z" fill="#333333" fill-opacity="0.2"/>
<path d="M26.5574 15.9836L23.6066 16.9672V15.4918H26.5574V15.9836Z" fill="#333333" fill-opacity="0.17"/>
<path d="M25.5738 13.0328C25.0306 13.0328 24.5902 12.5924 24.5902 12.0492V10.5738H21.6393V12.0492H24.0984V13.5246C24.0984 14.0678 24.5388 14.5082 25.082 14.5082H26.0656C26.5838 14.5072 27.0926 14.3699 27.541 14.1098V12.8606C27.2252 12.9735 26.8926 13.0316 26.5574 13.0328H25.5738Z" fill="#333333" fill-opacity="0.17"/>
<path d="M10.3622 0.737701H9.34426C8.80107 0.737701 8.36066 1.17812 8.36066 1.72131V2.70491L5.40984 5.65573H15.7377C16.5525 5.65573 17.2131 4.99511 17.2131 4.18032H14.2623C12.2809 4.17864 10.61 2.70347 10.3622 0.737701Z" fill="#333333" fill-opacity="0.17"/>
<path d="M16.2295 16.9672C14.0565 16.9672 12.2951 15.2058 12.2951 13.0328V11.5574H11.8033C11.2601 11.5574 10.8197 11.9978 10.8197 12.541V17.459C10.8197 18.0022 11.2601 18.4426 11.8033 18.4426H14.7541L17.2131 21.3934V18.4426H17.7049C18.2481 18.4426 18.6885 18.0022 18.6885 17.459V16.9672H16.2295Z" fill="#333333" fill-opacity="0.17"/>
<path d="M28.0328 14.5082V13.1853C29.2318 12.6164 29.9974 11.4092 30 10.0819V9.59014C30 7.68873 28.4588 6.14752 26.5574 6.14752H21.6393C20.9432 6.14416 20.2782 6.43617 19.8095 6.95078C19.3407 7.4654 19.1121 8.1546 19.1803 8.84764C19.3093 9.90977 20.1003 10.7721 21.1475 10.9918V13.5246C21.1473 14.6933 21.9698 15.7007 23.1148 15.9344V17.1098C21.6554 17.545 20.6553 18.8871 20.6557 20.4098V23.8524H18.1967C17.1103 23.8524 16.2295 24.7333 16.2295 25.8197C16.2309 26.1664 16.326 26.5062 16.5049 26.8033H13.0032C13.1822 26.5062 13.2772 26.1664 13.2787 25.8197C13.2787 24.7333 12.3979 23.8524 11.3115 23.8524H8.85246V20.4098C8.85294 18.8871 7.85276 17.545 6.39344 17.1098V15.9344C7.53842 15.7007 8.3609 14.6933 8.36066 13.5246V10.9966C9.22683 10.7731 9.83318 9.9931 9.83607 9.09834V7.62293C9.83607 7.35133 9.61586 7.13113 9.34426 7.13113H3.93443C2.30485 7.13113 0.983607 8.45237 0.983607 10.0819V12.0492C0.986488 12.9439 1.59284 13.7239 2.45902 13.9475V17.1098C0.999696 17.545 -0.000480104 18.8871 1.72893e-07 20.4098V29.2623C1.72893e-07 29.5339 0.220207 29.7541 0.491803 29.7541H29.0164C29.288 29.7541 29.5082 29.5339 29.5082 29.2623V20.4098C29.5087 18.8871 28.5085 17.545 27.0492 17.1098V15.895C27.6373 15.6873 28.0311 15.1318 28.0328 14.5082ZM20.1639 8.75398C20.1267 8.33974 20.266 7.92911 20.5474 7.62293C20.8255 7.31195 21.2222 7.13329 21.6393 7.13113H26.5574C27.9154 7.13113 29.0164 8.23216 29.0164 9.59014V10.0819C29.0121 11.1844 28.2744 12.1493 27.2115 12.4425L27.005 12.4968C26.8573 12.5239 26.7075 12.5386 26.5574 12.541H25.5738C25.3022 12.541 25.082 12.3208 25.082 12.0492V10.5737C25.082 10.3022 24.8618 10.0819 24.5902 10.0819H21.7229C20.9415 10.0992 20.271 9.52843 20.1639 8.75398ZM22.1311 13.5246V11.0656H24.0984V12.0492C24.0984 12.8639 24.759 13.5246 25.5738 13.5246H26.5574C26.7089 13.5231 26.86 13.5116 27.0098 13.4902H27.0492V14.5082C27.0492 14.7798 26.829 15 26.5574 15H23.6066C22.7918 15 22.1311 14.3394 22.1311 13.5246ZM17.2131 25.8197C17.2131 25.2765 17.6535 24.836 18.1967 24.836H18.6885V26.8033H18.1967C17.6535 26.8033 17.2131 26.3628 17.2131 25.8197ZM12.2951 25.8197C12.2951 26.3628 11.8547 26.8033 11.3115 26.8033H10.8197V24.836H11.3115C11.8547 24.836 12.2951 25.2765 12.2951 25.8197ZM7.37705 13.5246C7.37705 14.3394 6.71643 15 5.90164 15H3.44262V14.0164H3.93443C4.47762 14.0164 4.91803 13.576 4.91803 13.0328V11.0656H7.37705V13.5246ZM1.96721 12.0492V10.0819C1.96721 8.99556 2.84804 8.11473 3.93443 8.11473H8.85246V9.09834C8.85246 9.64153 8.41205 10.0819 7.86885 10.0819H4.42623C4.15463 10.0819 3.93443 10.3022 3.93443 10.5737V13.0328H2.95082C2.40763 13.0328 1.96721 12.5924 1.96721 12.0492ZM3.44262 15.9836H5.40984V16.9672H3.44262V15.9836ZM0.983607 20.4098C0.983607 19.0518 2.08464 17.9508 3.44262 17.9508H5.40984C6.76782 17.9508 7.86885 19.0518 7.86885 20.4098V23.8524H6.39344V20.9016C6.39344 20.63 6.17324 20.4098 5.90164 20.4098C5.63004 20.4098 5.40984 20.63 5.40984 20.9016V24.3442C5.40984 24.6158 5.63004 24.836 5.90164 24.836H9.83607V26.8033H4.91803C4.10324 26.8033 3.44262 26.1426 3.44262 25.3278V20.9016C3.44262 20.63 3.22242 20.4098 2.95082 20.4098C2.67922 20.4098 2.45902 20.63 2.45902 20.9016V25.3278C2.45613 25.8605 2.62903 26.3789 2.95082 26.8033H0.983607V20.4098ZM28.5246 28.7705H0.983607V27.7869H28.5246V28.7705ZM28.5246 20.4098V26.8033H26.5574C26.8792 26.3789 27.0521 25.8605 27.0492 25.3278V20.9016C27.0492 20.63 26.829 20.4098 26.5574 20.4098C26.2858 20.4098 26.0656 20.63 26.0656 20.9016V25.3278C26.0656 26.1426 25.405 26.8033 24.5902 26.8033H19.6721V24.836H23.6066C23.8782 24.836 24.0984 24.6158 24.0984 24.3442V20.9016C24.0984 20.63 23.8782 20.4098 23.6066 20.4098C23.335 20.4098 23.1148 20.63 23.1148 20.9016V23.8524H21.6393V20.4098C21.6393 19.0518 22.7404 17.9508 24.0984 17.9508H26.0656C27.4236 17.9508 28.5246 19.0518 28.5246 20.4098ZM24.0984 16.9672V15.9836H26.0656V16.9672H24.0984Z" fill="#333333"/>
<path d="M5.40983 6.14753H15.7377C16.8241 6.14753 17.7049 5.26671 17.7049 4.18032V1.72131C17.7049 0.906516 17.0443 0.245895 16.2295 0.245895H9.34426C8.52947 0.245895 7.86885 0.906516 7.86885 1.72131V2.5032L5.06067 5.30657C4.92115 5.44801 4.88033 5.65957 4.95741 5.84256C5.03281 6.02626 5.21124 6.14657 5.40983 6.14753ZM8.70981 3.05407C8.80179 2.96138 8.85318 2.83555 8.85246 2.70491V1.72131C8.85246 1.44971 9.07266 1.2295 9.34426 1.2295H16.2295C16.5011 1.2295 16.7213 1.44971 16.7213 1.72131V4.18032C16.7213 4.72351 16.2809 5.16393 15.7377 5.16393H6.59515L8.70981 3.05407Z" fill="#333333"/>
<path d="M12.2951 2.70491H10.3279C10.0563 2.70491 9.83606 2.92512 9.83606 3.19671C9.83606 3.46831 10.0563 3.68852 10.3279 3.68852H12.2951C12.5667 3.68852 12.7869 3.46831 12.7869 3.19671C12.7869 2.92512 12.5667 2.70491 12.2951 2.70491Z" fill="#333333"/>
<path d="M15.2459 2.70491H14.2623C13.9907 2.70491 13.7705 2.92512 13.7705 3.19671C13.7705 3.46831 13.9907 3.68852 14.2623 3.68852H15.2459C15.5175 3.68852 15.7377 3.46831 15.7377 3.19671C15.7377 2.92512 15.5175 2.70491 15.2459 2.70491Z" fill="#333333"/>
<path d="M11.8033 11.0656C10.9885 11.0656 10.3279 11.7262 10.3279 12.541V17.459C10.3279 18.2738 10.9885 18.9344 11.8033 18.9344H14.5228L16.8344 21.7082C16.9672 21.8675 17.1855 21.9265 17.3802 21.8557C17.575 21.7853 17.7049 21.6004 17.7049 21.3934V18.9344C18.5197 18.9344 19.1803 18.2738 19.1803 17.459V12.541C19.1803 11.7262 18.5197 11.0656 17.7049 11.0656H11.8033ZM18.1967 12.541V17.459C18.1967 17.7306 17.9765 17.9508 17.7049 17.9508H17.2131C16.9415 17.9508 16.7213 18.171 16.7213 18.4426V20.0362L15.1328 18.1278C15.0391 18.0154 14.9003 17.9506 14.7541 17.9508H11.8033C11.5317 17.9508 11.3115 17.7306 11.3115 17.459V12.541C11.3115 12.2694 11.5317 12.0492 11.8033 12.0492H17.7049C17.9765 12.0492 18.1967 12.2694 18.1967 12.541Z" fill="#333333"/>
<path d="M12.7869 14.0164H14.2623C14.5339 14.0164 14.7541 13.7962 14.7541 13.5246C14.7541 13.253 14.5339 13.0328 14.2623 13.0328H12.7869C12.5153 13.0328 12.2951 13.253 12.2951 13.5246C12.2951 13.7962 12.5153 14.0164 12.7869 14.0164Z" fill="#333333"/>
<path d="M16.2295 15.9836H12.7869C12.5153 15.9836 12.2951 16.2038 12.2951 16.4754C12.2951 16.747 12.5153 16.9672 12.7869 16.9672H16.2295C16.5011 16.9672 16.7213 16.747 16.7213 16.4754C16.7213 16.2038 16.5011 15.9836 16.2295 15.9836Z" fill="#333333"/>
<path d="M16.7213 14.0164H15.7377C15.4661 14.0164 15.2459 14.2366 15.2459 14.5082C15.2459 14.7798 15.4661 15 15.7377 15H16.7213C16.9929 15 17.2131 14.7798 17.2131 14.5082C17.2131 14.2366 16.9929 14.0164 16.7213 14.0164Z" fill="#333333"/>
</svg>
